<svg version="1.1" id="Layer_1" xmlns="http://www.w3.org/2000/svg" xmlns:xlink="http://www.w3.org/1999/xlink" x="0px" y="0px"
	 width="100%" viewBox="0 0 2666 1676" enable-background="new 0 0 2666 1676" xml:space="preserve">
<path fill="#FFFFFF" opacity="1.000000" stroke="none" 
	d="
M1990.000000,1678.000000 
	C1326.742798,1678.000000 664.485535,1678.000000 2.114171,1678.000000 
	C2.114171,1119.473633 2.114171,560.947327 2.114171,2.210472 
	C890.424194,2.210472 1778.848389,2.210472 2667.636230,2.210472 
	C2667.636230,560.666443 2667.636230,1119.333252 2667.636230,1678.000000 
	C2442.280029,1678.000000 2216.639893,1678.000000 1990.000000,1678.000000 
M307.836639,1305.650635 
	C304.069458,1305.890747 300.302246,1306.130859 296.547852,1306.370117 
	C296.711365,1307.920166 296.662659,1308.288208 296.792877,1308.574829 
	C305.600616,1327.955811 321.651245,1336.480103 341.949097,1338.046631 
	C350.163055,1338.680542 358.466766,1338.151123 366.492218,1338.151123 
	C375.117798,1351.330078 384.730011,1362.725830 396.887604,1371.829224 
	C417.854095,1387.528198 441.104034,1394.098389 467.268097,1390.399414 
	C496.844238,1386.218262 522.106018,1372.745117 545.562012,1355.125244 
	C547.925720,1353.349609 550.300659,1351.588989 552.739807,1349.769653 
	C555.470337,1351.039307 557.878296,1352.114990 560.248596,1353.267944 
	C589.964233,1367.720825 620.698730,1379.417969 652.848633,1387.195923 
	C692.398376,1396.764282 732.080994,1397.858154 771.183594,1385.776855 
	C823.408569,1369.641113 858.910461,1335.208740 876.309387,1283.379272 
	C886.030396,1254.421509 882.230957,1226.854980 861.719055,1202.837280 
	C860.888550,1201.864746 860.310120,1200.677002 859.487549,1199.391602 
	C860.715393,1197.943115 861.704895,1196.640137 862.831299,1195.468750 
	C871.893921,1186.043335 879.612183,1175.665161 885.272949,1163.833984 
	C898.254639,1136.701294 896.768677,1110.369507 880.620300,1084.992920 
	C868.958313,1066.666382 852.826233,1052.859131 835.042175,1040.819946 
	C834.090698,1040.175781 832.575806,1040.364014 831.403564,1038.274658 
	C831.438843,977.278137 831.504761,916.281555 831.461243,855.285095 
	C831.456970,849.311340 831.068237,843.304260 830.371033,837.369934 
	C824.635925,788.554443 784.242859,751.815796 735.445557,751.768799 
	C567.453003,751.606995 399.459991,751.596313 231.467407,751.770630 
	C179.542603,751.824524 136.130890,794.639343 135.978653,846.460693 
	C135.621262,968.121033 135.640823,1089.783813 135.969406,1211.444336 
	C136.107391,1262.524048 178.262924,1304.912842 229.316208,1306.227539 
	C248.636200,1306.725220 267.976715,1306.449341 287.307861,1306.458740 
	C289.587067,1306.459839 291.866486,1306.033081 295.154938,1305.703613 
	C283.685150,1269.702148 297.894897,1239.067505 315.217041,1208.727905 
	C310.957001,1206.825195 307.540009,1205.541016 304.351685,1203.830811 
	C293.508881,1198.014771 282.262390,1192.764160 272.116364,1185.898926 
	C264.807434,1180.953369 258.220154,1174.404541 252.704407,1167.463501 
	C242.936081,1155.170898 241.726608,1141.026001 248.837143,1127.095825 
	C252.721481,1119.486206 257.931610,1112.307495 263.657654,1105.935303 
	C275.103058,1093.198120 289.192047,1083.603882 303.878357,1074.912720 
	C306.988037,1073.072510 310.035980,1071.127686 313.654266,1068.896973 
	C311.820557,1064.389771 310.098419,1060.468384 308.614319,1056.458984 
	C297.736420,1027.071289 304.191101,1001.042847 327.868103,980.645691 
	C346.013336,965.013977 367.709564,956.572937 390.886566,952.199951 
	C399.904449,950.498474 409.555206,949.993530 418.632355,951.161438 
	C448.005829,954.940674 468.286499,972.132812 482.630524,997.206177 
	C484.218079,999.981262 485.819946,1002.748230 487.608765,1005.855164 
	C491.303986,1003.541260 494.211487,1001.234131 497.492615,999.756958 
	C507.464783,995.267456 517.236755,989.717651 527.716003,987.103210 
	C547.213867,982.238770 563.975891,987.924500 576.111267,1004.656555 
	C579.212891,1008.933167 581.840820,1013.553345 584.660828,1017.975464 
	C585.500671,1017.684082 586.180908,1017.579712 586.704407,1017.236328 
	C587.534546,1016.691711 588.288330,1016.018555 589.025269,1015.345886 
	C626.051941,981.548645 669.509644,973.278870 717.399536,983.350342 
	C758.620728,992.019287 794.813354,1011.416809 828.297302,1036.360474 
	C829.578979,1037.315186 830.460876,1038.806641 830.854431,1041.669189 
	C830.573853,1045.779419 830.293335,1049.889771 828.912231,1054.015015 
	C828.545898,1054.035522 828.179565,1054.055908 826.541382,1053.629028 
	C821.445557,1049.879883 816.406372,1046.050659 811.244446,1042.394775 
	C781.944458,1021.642822 750.915833,1004.283569 715.325439,997.114990 
	C662.842468,986.544006 618.594055,1000.847595 584.003418,1042.503662 
	C582.424377,1044.405396 581.303711,1046.687500 579.969482,1048.792480 
	C577.307312,1044.999268 576.836060,1042.720947 575.986633,1040.593628 
	C572.794312,1032.598755 570.366943,1024.126953 566.025879,1016.797546 
	C556.763306,1001.158691 542.799866,996.112183 525.838440,1002.276001 
	C517.497742,1005.307007 509.565277,1009.874023 502.074738,1014.715454 
	C494.579254,1019.560120 487.865051,1025.613403 480.315155,1031.522949 
	C479.408295,1029.253174 478.677460,1027.140259 477.739105,1025.124023 
	C473.677063,1016.396179 470.530731,1007.050110 465.271301,999.107666 
	C449.311279,975.006165 428.017731,961.739563 397.630402,968.006226 
	C378.221558,972.008789 359.542480,977.456055 343.118591,989.022827 
	C318.006226,1006.708618 311.775116,1033.111938 326.589722,1059.951416 
	C329.447723,1065.129272 332.895905,1069.981323 336.436798,1075.558472 
	C333.154022,1077.214844 330.252594,1078.733765 327.305054,1080.157104 
	C311.380646,1087.846191 295.521576,1095.801758 282.371582,1107.801758 
	C275.569061,1114.009399 269.116852,1121.034058 264.191803,1128.763550 
	C256.920319,1140.175659 258.088104,1151.094727 267.544495,1160.718872 
	C274.457764,1167.754761 282.340454,1174.380127 290.940094,1179.090698 
	C304.018066,1186.254517 318.086334,1191.612305 331.746246,1197.709839 
	C334.322296,1198.859619 336.955566,1199.881104 340.092224,1201.181641 
	C338.118866,1204.092896 336.474762,1206.176270 335.195038,1208.463623 
	C328.379059,1220.646362 320.801880,1232.497192 315.099640,1245.187012 
	C306.717773,1263.840088 303.851593,1283.408081 309.841003,1304.310303 
	C309.640594,1304.642700 309.440155,1304.975220 307.836639,1305.650635 
M2095.788574,544.643005 
	C2090.965820,543.348755 2086.167480,541.955200 2081.316162,540.777954 
	C2062.769775,536.277161 2044.078857,533.275757 2024.915894,535.897095 
	C2007.471802,538.283386 1993.131470,545.722107 1984.429321,561.692322 
	C1975.987183,577.185669 1980.112305,591.556824 1995.774536,599.555786 
	C2001.892944,602.680542 2008.790894,604.908997 2015.581055,605.982605 
	C2051.302734,611.630554 2085.145508,605.426453 2117.119873,588.654541 
	C2119.223633,587.551025 2121.434570,586.651672 2125.508057,584.777466 
	C2115.824951,607.565552 2107.033203,628.255920 2097.661377,650.312012 
	C2115.772949,650.312012 2132.572998,650.312012 2149.451660,650.312012 
	C2154.569580,691.775757 2171.634033,725.927734 2204.126709,751.934387 
	C2203.693359,752.424194 2203.260010,752.913940 2202.826660,753.403748 
	C2199.599609,753.403748 2196.372559,753.403748 2193.145508,753.403748 
	C2108.485352,753.403748 2023.825195,753.490845 1939.165283,753.331970 
	C1921.758667,753.299316 1905.353760,756.723145 1890.360718,765.539795 
	C1857.453613,784.890747 1840.406738,814.028381 1840.292725,852.013428 
	C1839.934692,971.336548 1840.161499,1090.661377 1840.167725,1209.985474 
	C1840.167847,1211.651123 1840.158081,1213.324097 1840.298218,1214.981323 
	C1843.750854,1255.838501 1863.892090,1285.143066 1901.667236,1301.294434 
	C1919.760742,1309.030518 1939.353760,1311.984253 1958.306885,1305.803711 
	C2023.322876,1284.602661 2086.179688,1258.106567 2146.284424,1225.363525 
	C2193.234131,1199.786987 2237.824707,1170.710205 2277.398193,1134.475586 
	C2305.612061,1108.642090 2330.404541,1080.050537 2347.440186,1045.422852 
	C2369.648438,1000.281311 2370.851074,954.591919 2350.805908,908.368225 
	C2341.864502,887.749023 2330.049316,868.890320 2316.181152,851.286743 
	C2288.096680,815.637695 2254.476562,785.962158 2217.407227,760.024658 
	C2215.124268,758.427429 2212.975830,756.638123 2208.802246,753.428955 
	C2218.075195,753.428955 2224.826660,753.428955 2231.578125,753.428955 
	C2214.812256,740.360718 2200.000000,726.231750 2188.612793,708.828003 
	C2177.070312,691.186707 2169.163086,672.184631 2166.936523,649.867310 
	C2199.899170,649.867310 2231.681641,649.867310 2264.613281,649.867310 
	C2262.814453,646.029236 2261.630127,643.366394 2260.333984,640.759094 
	C2251.440918,622.869263 2242.488770,605.008545 2233.650391,587.091675 
	C2232.208984,584.169861 2231.235840,581.017090 2229.930420,578.049438 
	C2229.930420,578.049438 2229.807617,578.116943 2231.156494,577.185364 
	C2234.576660,578.481323 2238.019287,579.721863 2241.413574,581.082275 
	C2261.515381,589.139038 2281.768066,596.746460 2303.120117,600.869263 
	C2315.588867,603.276733 2328.098145,605.009583 2340.783203,602.076355 
	C2352.093262,599.461121 2361.105713,593.938293 2366.109375,583.016052 
	C2377.231689,558.736206 2365.453857,534.057861 2339.601074,527.793579 
	C2325.447021,524.363953 2311.160156,525.339722 2296.891113,527.179932 
	C2292.536377,527.741516 2288.171143,528.219666 2283.900879,528.725281 
	C2283.728516,527.093933 2283.541504,526.615479 2283.684082,526.477356 
	C2285.352051,524.863037 2286.999512,523.214905 2288.784668,521.735718 
	C2329.588379,487.922516 2360.284180,446.460907 2380.922119,397.799072 
	C2401.688232,348.835052 2414.385986,298.093567 2410.260010,244.304291 
	C2406.046143,189.369141 2383.627930,142.994354 2340.383545,108.895996 
	C2266.879395,50.937813 2183.939941,38.995876 2096.174316,68.022163 
	C2024.209961,91.822639 1979.427979,142.630661 1963.305420,217.299500 
	C1953.177124,264.206757 1957.356323,310.742920 1969.248657,356.765106 
	C1988.309204,430.528168 2029.916138,489.285156 2089.384033,536.034363 
	C2092.456543,538.449890 2095.232666,541.242615 2097.755859,544.232117 
	C2097.755859,544.232117 2097.361572,544.601135 2095.788574,544.643005 
M1189.258423,903.745056 
	C1153.737915,868.150085 1135.255249,824.407288 1127.917725,775.354309 
	C1126.853394,768.238647 1126.024902,761.087769 1125.095825,754.018372 
	C1106.893311,754.018372 1089.588501,753.987793 1072.284058,754.060486 
	C1070.313599,754.068787 1068.326660,754.568665 1066.379150,754.988098 
	C1019.788940,765.021729 988.141724,803.889954 988.035706,851.630432 
	C987.898071,913.615601 987.997681,975.601318 987.999756,1037.586792 
	C988.001648,1095.906372 987.687134,1154.228394 988.110168,1212.544922 
	C988.490784,1265.018677 1031.662354,1308.029297 1083.942383,1308.082642 
	C1251.902710,1308.254150 1419.863525,1308.178223 1587.824097,1308.113647 
	C1612.971191,1308.104004 1634.730591,1298.934082 1652.892578,1281.787109 
	C1673.580933,1262.254883 1683.668823,1237.796875 1683.786743,1209.461426 
	C1683.999023,1158.474243 1683.856201,1107.485596 1683.856934,1056.497559 
	C1683.857788,988.846741 1683.853882,921.195984 1683.852173,853.545166 
	C1683.851685,834.489136 1679.842651,816.372864 1669.463989,800.266418 
	C1640.293945,754.997986 1601.211304,749.494629 1554.847046,754.894348 
	C1553.034424,769.395325 1552.209961,784.077271 1549.247437,798.314270 
	C1535.311646,865.283813 1498.128296,914.430237 1435.673462,943.561035 
	C1431.829956,945.353760 1430.222900,947.453125 1429.657593,951.601624 
	C1426.603394,974.016052 1423.237427,996.388245 1419.955811,1018.771545 
	C1418.281372,1030.192139 1416.558716,1041.605713 1414.858765,1053.016113 
	C1366.002563,1053.016113 1318.218628,1053.016113 1270.353027,1053.016113 
	C1269.606689,1049.791260 1268.799194,1047.236694 1268.443115,1044.620483 
	C1264.314209,1014.289001 1259.958496,983.982666 1256.401733,953.583252 
	C1255.608154,946.800659 1252.853882,943.870483 1246.963257,941.496033 
	C1225.729736,932.936890 1206.930054,920.451721 1189.258423,903.745056 
M2315.796631,1126.779907 
	C2288.729736,1155.598267 2257.923584,1179.927246 2225.197021,1201.899780 
	C2163.844482,1243.091187 2098.072021,1275.824219 2029.756348,1303.661499 
	C2027.516479,1304.574219 2025.396729,1305.781128 2021.447021,1307.723145 
	C2024.937744,1307.977905 2026.211304,1308.152344 2027.484741,1308.152466 
	C2165.440674,1308.165405 2303.396484,1308.178345 2441.352539,1308.147583 
	C2456.655518,1308.144165 2471.120361,1304.280762 2484.346924,1296.761719 
	C2518.587402,1277.296509 2535.884766,1247.555176 2535.945557,1208.237305 
	C2536.109863,1102.271362 2536.003418,996.305054 2536.000244,890.338867 
	C2535.999756,876.010193 2536.298340,861.672668 2535.906006,847.354431 
	C2534.494629,795.846802 2491.971436,753.771057 2440.456787,753.495972 
	C2374.812988,753.145508 2309.165771,753.403259 2243.520020,753.446594 
	C2241.490723,753.447937 2239.461914,753.978638 2237.648682,754.232422 
	C2257.315186,771.003235 2277.049072,786.842773 2295.643311,803.922852 
	C2322.535156,828.624817 2345.661865,856.522339 2362.569092,889.183411 
	C2391.370850,944.823059 2392.034912,1000.786194 2364.535156,1057.081299 
	C2352.151611,1082.431152 2335.789551,1105.011719 2315.796631,1126.779907 
M1441.000000,753.515686 
	C1411.688843,753.515808 1382.377075,753.601257 1353.066895,753.437439 
	C1347.782959,753.407959 1343.645874,754.538208 1339.725586,758.478516 
	C1328.220459,770.042664 1316.271240,781.164429 1304.539307,792.504333 
	C1303.421509,793.584595 1302.608276,794.979736 1300.694336,797.483826 
	C1337.679932,806.590149 1373.492920,815.407776 1409.305908,824.225403 
	C1381.471069,838.596558 1352.680908,849.214172 1322.904297,862.668152 
	C1348.728760,870.036926 1372.177368,876.727783 1397.343628,883.908752 
	C1383.045044,895.647766 1370.563354,906.089905 1357.838013,916.226440 
	C1353.909424,919.355774 1351.830566,922.538330 1351.868652,927.878906 
	C1352.113037,962.184448 1351.975586,996.492615 1352.045532,1030.799683 
	C1352.050049,1032.968140 1352.745728,1035.135376 1353.193604,1037.730713 
	C1361.758911,1037.730713 1369.728882,1037.751709 1377.698486,1037.724731 
	C1385.535522,1037.698364 1393.372314,1037.623413 1401.233643,1037.569580 
	C1406.375488,1001.623169 1411.311890,967.114075 1416.169312,933.155945 
	C1509.397217,893.160278 1536.307983,806.642029 1534.565308,753.515137 
	C1504.080200,753.515137 1473.540161,753.515137 1441.000000,753.515686 
M1320.800903,755.463989 
	C1318.168457,754.814697 1315.537354,753.604492 1312.903564,753.598938 
	C1260.253540,753.488098 1207.603394,753.506104 1154.953247,753.543945 
	C1152.063965,753.546021 1149.174805,753.947815 1145.755493,754.203125 
	C1145.755493,757.507874 1145.360962,760.177673 1145.820435,762.691345 
	C1148.507202,777.390991 1150.304688,792.367920 1154.423340,806.669128 
	C1165.465698,845.010071 1185.501709,877.912231 1216.641357,903.512878 
	C1230.911377,915.244446 1246.738770,924.378296 1263.761597,931.416138 
	C1267.484741,932.955505 1269.715942,934.594788 1270.223877,939.042786 
	C1272.640381,960.197144 1275.419312,981.310486 1278.118530,1002.432068 
	C1279.584839,1013.906250 1281.149780,1025.367920 1282.712891,1037.156982 
	C1300.590210,1037.156982 1317.734497,1037.156982 1336.007935,1037.156982 
	C1336.007935,1033.030029 1336.007935,1029.463745 1336.007935,1025.897461 
	C1336.008423,991.241699 1336.122437,956.585205 1335.893066,921.930969 
	C1335.856567,916.400269 1337.406372,912.536926 1341.790649,909.157776 
	C1349.127075,903.503296 1356.091919,897.366638 1364.324097,890.507080 
	C1335.282593,881.163452 1306.678101,875.061829 1276.861572,865.452820 
	C1307.023804,852.944336 1334.848267,841.405334 1364.756714,829.002075 
	C1331.842407,820.570801 1301.392700,812.770874 1268.739136,804.406311 
	C1287.006714,787.401672 1303.500610,772.048218 1320.800903,755.463989 
M493.919342,1458.933960 
	C512.095947,1482.040283 551.897949,1487.707886 578.801086,1466.971680 
	C601.716980,1449.308472 601.499512,1418.851562 578.487366,1401.282104 
	C557.825256,1385.507080 526.894531,1384.427124 505.356689,1398.973877 
	C483.482971,1413.747192 478.555450,1438.570679 493.919342,1458.933960 
M459.712830,1504.741089 
	C477.008606,1488.942139 474.477478,1462.376953 455.418243,1447.059692 
	C438.139099,1433.172974 411.858154,1432.437256 393.828918,1445.392944 
	C380.542603,1454.940552 373.858734,1467.818481 376.228699,1484.185669 
	C378.529480,1500.074707 389.138580,1509.458496 403.733032,1514.143555 
	C423.263062,1520.412842 441.868042,1518.459961 459.712830,1504.741089 
M1328.078613,413.000000 
	C1328.078613,452.856598 1328.078613,492.713226 1328.078613,532.985596 
	C1333.812378,532.985596 1338.271973,532.985596 1343.149170,532.985596 
	C1343.149170,470.958130 1343.149170,409.556671 1343.149170,347.602844 
	C1338.048584,347.602844 1333.588379,347.602844 1328.078735,347.602844 
	C1328.078735,369.205078 1328.078735,390.102539 1328.078613,413.000000 
M1105.968628,544.984924 
	C1129.215576,565.672424 1152.462524,586.359924 1176.467773,607.722168 
	C1178.817749,604.857605 1180.311401,603.081787 1181.754028,601.265442 
	C1183.147949,599.510315 1184.489380,597.713501 1186.242676,595.428284 
	C1140.918823,555.170044 1096.018677,515.288086 1050.528809,474.882385 
	C1046.897339,479.069305 1043.947021,482.470795 1040.275513,486.703918 
	C1062.244141,506.192596 1083.577515,525.117676 1105.968628,544.984924 
M1236.139282,502.716400 
	C1219.042114,463.121216 1201.944946,423.526062 1184.569946,383.287415 
	C1179.276123,385.583710 1175.132202,387.381256 1170.191406,389.524414 
	C1194.190430,445.058990 1217.875488,499.867096 1241.896729,555.453247 
	C1247.175049,553.291748 1251.324463,551.592529 1256.338989,549.539062 
	C1249.588135,533.892578 1243.164795,519.005005 1236.139282,502.716400 
M1480.627197,437.727661 
	C1487.418945,421.925690 1494.210571,406.123688 1501.308838,389.608490 
	C1496.102539,387.292542 1492.002686,385.468811 1487.101440,383.288544 
	C1463.010986,439.041260 1439.319702,493.870361 1415.302002,549.454834 
	C1420.611206,551.751343 1424.950684,553.628357 1429.672607,555.670776 
	C1446.791748,516.066895 1463.418335,477.602661 1480.627197,437.727661 
M1500.836914,581.871887 
	C1495.717651,586.420349 1490.598511,590.968872 1485.311401,595.666626 
	C1487.643921,598.456360 1489.037476,600.296936 1490.616455,601.961548 
	C1492.133057,603.560669 1493.841797,604.977539 1496.031616,606.995728 
	C1541.296753,566.746216 1586.128174,526.882263 1631.460205,486.573181 
	C1627.517212,482.158295 1624.522095,478.804657 1621.725586,475.673523 
	C1620.200073,476.360809 1619.485596,476.502777 1619.015381,476.919952 
	C1579.960083,511.575012 1540.923584,546.251465 1500.836914,581.871887 
M1070.234619,648.538940 
	C1088.327637,657.590515 1106.420776,666.642151 1125.115112,675.994507 
	C1127.458008,670.965149 1129.360596,666.881104 1131.179565,662.976379 
	C1121.421875,655.656799 987.755798,589.512878 980.119507,588.232056 
	C978.181030,592.065430 976.176086,596.030334 973.961487,600.409790 
	C1006.360107,616.625488 1037.618896,632.270691 1070.234619,648.538940 
M284.469299,1520.330688 
	C294.987457,1535.683594 333.982727,1535.318848 346.573792,1524.807861 
	C352.273956,1520.049316 355.730957,1514.445801 356.219849,1506.998291 
	C357.164032,1492.614746 349.944733,1482.685791 335.101196,1478.523560 
	C323.630280,1475.306885 312.033966,1475.328003 300.580261,1478.542236 
	C281.044617,1484.024780 274.024292,1501.027344 284.469299,1520.330688 
M1593.377808,652.419861 
	C1627.826538,635.198059 1662.275269,617.976196 1697.437012,600.397888 
	C1694.984619,595.236633 1693.055054,591.175598 1690.804565,586.439331 
	C1640.160522,611.773987 1590.259033,636.737122 1539.564941,662.096863 
	C1542.133789,666.964355 1544.221191,670.919861 1546.720581,675.655579 
	C1562.361694,667.886536 1577.214355,660.509094 1593.377808,652.419861 
M189.829376,1518.919678 
	C187.892883,1536.290283 194.708572,1546.447388 210.831787,1549.279663 
	C219.758179,1550.847534 228.741669,1550.364624 237.360107,1547.060669 
	C248.418076,1542.821655 254.050537,1535.274780 254.090652,1524.754761 
	C254.130203,1514.389404 248.553665,1505.702759 237.515701,1502.462646 
	C230.045532,1500.269775 221.825317,1499.805298 213.967163,1499.956055 
	C202.340225,1500.179077 193.618210,1505.537109 189.829376,1518.919678 
M188.238327,1603.448608 
	C204.674698,1591.039551 196.313461,1572.640747 182.948090,1566.718628 
	C172.380554,1562.036133 161.724762,1561.850830 151.110596,1566.204346 
	C140.807739,1570.430176 135.339050,1578.637085 135.851288,1588.336060 
	C136.309982,1597.021362 143.078003,1604.607300 153.336227,1607.633057 
	C164.972656,1611.065308 176.251511,1610.368286 188.238327,1603.448608 
z"/>
<path fill="#FDBA32" opacity="1.000000" stroke="none" 
	d="
M1189.763916,904.247620 
	C1206.930054,920.451721 1225.729736,932.936890 1246.963257,941.496033 
	C1252.853882,943.870483 1255.608154,946.800659 1256.401733,953.583252 
	C1259.958496,983.982666 1264.314209,1014.289001 1268.443115,1044.620483 
	C1268.799194,1047.236694 1269.606689,1049.791260 1270.353027,1053.016113 
	C1318.218628,1053.016113 1366.002563,1053.016113 1414.858765,1053.016113 
	C1416.558716,1041.605713 1418.281372,1030.192139 1419.955811,1018.771545 
	C1423.237427,996.388245 1426.603394,974.016052 1429.657593,951.601624 
	C1430.222900,947.453125 1431.829956,945.353760 1435.673462,943.561035 
	C1498.128296,914.430237 1535.311646,865.283813 1549.247437,798.314270 
	C1552.209961,784.077271 1553.034424,769.395325 1554.847046,754.894348 
	C1601.211304,749.494629 1640.293945,754.997986 1669.463989,800.266418 
	C1679.842651,816.372864 1683.851685,834.489136 1683.852173,853.545166 
	C1683.853882,921.195984 1683.857788,988.846741 1683.856934,1056.497559 
	C1683.856201,1107.485596 1683.999023,1158.474243 1683.786743,1209.461426 
	C1683.668823,1237.796875 1673.580933,1262.254883 1652.892578,1281.787109 
	C1634.730591,1298.934082 1612.971191,1308.104004 1587.824097,1308.113647 
	C1419.863525,1308.178223 1251.902710,1308.254150 1083.942383,1308.082642 
	C1031.662354,1308.029297 988.490784,1265.018677 988.110168,1212.544922 
	C987.687134,1154.228394 988.001648,1095.906372 987.999756,1037.586792 
	C987.997681,975.601318 987.898071,913.615601 988.035706,851.630432 
	C988.141724,803.889954 1019.788940,765.021729 1066.379150,754.988098 
	C1068.326660,754.568665 1070.313599,754.068787 1072.284058,754.060486 
	C1089.588501,753.987793 1106.893311,754.018372 1125.095825,754.018372 
	C1126.024902,761.087769 1126.853394,768.238647 1127.917725,775.354309 
	C1135.255249,824.407288 1153.737915,868.150085 1189.763916,904.247620 
M1327.000000,1125.459961 
	C1356.177490,1125.459961 1385.354980,1125.459961 1414.928467,1125.459961 
	C1414.928467,1119.847900 1414.928467,1115.441040 1414.928467,1111.148926 
	C1401.573975,1109.283325 1280.127686,1109.830811 1272.879883,1111.750854 
	C1272.879883,1115.865845 1272.879883,1120.044800 1272.879883,1125.459106 
	C1290.597046,1125.459106 1307.798584,1125.459106 1327.000000,1125.459961 
M1279.569092,1143.934570 
	C1277.381714,1144.267456 1275.194336,1144.600220 1273.192261,1144.904785 
	C1273.192261,1150.019653 1273.192261,1154.458496 1273.192261,1158.771118 
	C1289.682861,1160.746216 1408.160645,1159.993408 1414.800293,1158.025879 
	C1414.800293,1153.494263 1414.800293,1149.032349 1414.800293,1143.932495 
	C1369.800781,1143.932495 1325.622070,1143.932495 1279.569092,1143.934570 
M1400.797852,1090.155396 
	C1405.332886,1090.155396 1409.868042,1090.155396 1414.543457,1090.155396 
	C1414.543457,1084.701294 1414.543457,1080.592407 1414.543457,1076.562622 
	C1394.972534,1074.554443 1279.528442,1075.428101 1272.735352,1077.522339 
	C1272.735352,1081.435669 1272.735352,1085.291870 1272.735352,1090.155518 
	C1315.171387,1090.155518 1357.012573,1090.155518 1400.797852,1090.155396 
M1367.123169,1183.163086 
	C1367.426025,1178.572998 1364.786865,1177.700928 1360.845947,1177.746094 
	C1348.516113,1177.887329 1336.183105,1177.752441 1323.852661,1177.861450 
	C1322.005615,1177.877686 1320.165039,1178.627563 1318.479736,1179.002808 
	C1318.479736,1183.802979 1318.479736,1188.024902 1318.479736,1192.824707 
	C1334.526489,1192.824707 1350.025269,1192.824707 1366.197754,1192.824707 
	C1366.538086,1189.953369 1366.839844,1187.406860 1367.123169,1183.163086 
z"/>
<path fill="#B22C1E" opacity="1.000000" stroke="none" 
	d="
M2230.046387,577.971008 
	C2231.235840,581.017090 2232.208984,584.169861 2233.650391,587.091675 
	C2242.488770,605.008545 2251.440918,622.869263 2260.333984,640.759094 
	C2261.630127,643.366394 2262.814453,646.029236 2264.613281,649.867310 
	C2231.681641,649.867310 2199.899170,649.867310 2166.936523,649.867310 
	C2169.163086,672.184631 2177.070312,691.186707 2188.612793,708.828003 
	C2200.000000,726.231750 2214.812256,740.360718 2231.578125,753.428955 
	C2224.826660,753.428955 2218.075195,753.428955 2208.802246,753.428955 
	C2212.975830,756.638123 2215.124268,758.427429 2217.407227,760.024658 
	C2254.476562,785.962158 2288.096680,815.637695 2316.181152,851.286743 
	C2330.049316,868.890320 2341.864502,887.749023 2350.805908,908.368225 
	C2370.851074,954.591919 2369.648438,1000.281311 2347.440186,1045.422852 
	C2330.404541,1080.050537 2305.612061,1108.642090 2277.398193,1134.475586 
	C2237.824707,1170.710205 2193.234131,1199.786987 2146.284424,1225.363525 
	C2086.179688,1258.106567 2023.322876,1284.602661 1958.306885,1305.803711 
	C1939.353760,1311.984253 1919.760742,1309.030518 1901.667236,1301.294434 
	C1863.892090,1285.143066 1843.750854,1255.838501 1840.298218,1214.981323 
	C1840.158081,1213.324097 1840.167847,1211.651123 1840.167725,1209.985474 
	C1840.161499,1090.661377 1839.934692,971.336548 1840.292725,852.013428 
	C1840.406738,814.028381 1857.453613,784.890747 1890.360718,765.539795 
	C1905.353760,756.723145 1921.758667,753.299316 1939.165283,753.331970 
	C2023.825195,753.490845 2108.485352,753.403748 2193.145508,753.403748 
	C2196.372559,753.403748 2199.599609,753.403748 2202.826660,753.403748 
	C2203.260010,752.913940 2203.693359,752.424194 2204.126709,751.934387 
	C2171.634033,725.927734 2154.569580,691.775757 2149.451660,650.312012 
	C2132.572998,650.312012 2115.772949,650.312012 2097.661377,650.312012 
	C2107.033203,628.255920 2115.824951,607.565552 2125.508057,584.777466 
	C2121.434570,586.651672 2119.223633,587.551025 2117.119873,588.654541 
	C2085.145508,605.426453 2051.302734,611.630554 2015.581055,605.982605 
	C2008.790894,604.908997 2001.892944,602.680542 1995.774536,599.555786 
	C1980.112305,591.556824 1975.987183,577.185669 1984.429321,561.692322 
	C1993.131470,545.722107 2007.471802,538.283386 2024.915894,535.897095 
	C2044.078857,533.275757 2062.769775,536.277161 2081.316162,540.777954 
	C2086.167480,541.955200 2090.965820,543.348755 2096.927490,545.062805 
	C2098.607422,545.382385 2099.148438,545.282104 2099.689453,545.181824 
	C2099.175293,544.741089 2098.660889,544.300415 2098.146729,543.859741 
	C2095.232666,541.242615 2092.456543,538.449890 2089.384033,536.034363 
	C2029.916138,489.285156 1988.309204,430.528168 1969.248657,356.765106 
	C1957.356323,310.742920 1953.177124,264.206757 1963.305420,217.299500 
	C1979.427979,142.630661 2024.209961,91.822639 2096.174316,68.022163 
	C2183.939941,38.995876 2266.879395,50.937813 2340.383545,108.895996 
	C2383.627930,142.994354 2406.046143,189.369141 2410.260010,244.304291 
	C2414.385986,298.093567 2401.688232,348.835052 2380.922119,397.799072 
	C2360.284180,446.460907 2329.588379,487.922516 2288.784668,521.735718 
	C2286.999512,523.214905 2285.352051,524.863037 2283.684082,526.477356 
	C2283.541504,526.615479 2283.728516,527.093933 2283.900879,528.725281 
	C2288.171143,528.219666 2292.536377,527.741516 2296.891113,527.179932 
	C2311.160156,525.339722 2325.447021,524.363953 2339.601074,527.793579 
	C2365.453857,534.057861 2377.231689,558.736206 2366.109375,583.016052 
	C2361.105713,593.938293 2352.093262,599.461121 2340.783203,602.076355 
	C2328.098145,605.009583 2315.588867,603.276733 2303.120117,600.869263 
	C2281.768066,596.746460 2261.515381,589.139038 2241.413574,581.082275 
	C2238.019287,579.721863 2234.576660,578.481323 2230.767090,577.323364 
	C2229.926514,577.273621 2229.474854,577.085815 2229.023438,576.898071 
	C2229.364502,577.255737 2229.705322,577.613342 2230.046387,577.971008 
M2075.194824,503.821045 
	C2098.649414,525.673523 2124.849609,543.825745 2152.918701,560.139526 
	C2142.299072,585.078918 2132.052490,609.142517 2121.452148,634.036987 
	C2161.098389,634.036987 2199.536621,634.036987 2239.230713,634.036987 
	C2237.527832,630.219788 2236.318604,627.227295 2234.886230,624.345764 
	C2228.216064,610.927490 2221.457275,597.553345 2214.783447,584.137024 
	C2209.817383,574.153992 2206.626465,562.725830 2191.426758,559.622742 
	C2197.323486,556.967163 2200.804688,555.118469 2204.474854,553.794678 
	C2221.186035,547.767578 2236.720703,539.441223 2251.458252,529.643677 
	C2317.213867,485.929565 2359.754639,425.214294 2381.853027,349.915558 
	C2392.316895,314.261078 2398.725098,278.037903 2394.460449,240.505753 
	C2388.400635,187.176697 2364.562012,143.688812 2320.675781,113.133369 
	C2249.902832,63.857948 2172.751953,55.401978 2092.529053,85.713638 
	C2031.448853,108.792374 1993.662354,154.048889 1978.974609,217.824966 
	C1970.390137,255.099838 1971.966431,292.621124 1978.950439,329.970428 
	C1991.677124,398.029999 2023.702881,455.538452 2075.194824,503.821045 
M2353.793701,558.328552 
	C2351.487549,548.549072 2344.219727,543.979309 2335.293945,542.472839 
	C2327.509766,541.159058 2319.404053,540.692139 2311.525391,541.191833 
	C2286.806396,542.759705 2263.154053,549.522217 2239.771240,557.266479 
	C2237.751709,557.935303 2235.904785,559.126831 2232.814941,560.648071 
	C2260.355469,572.636719 2286.829346,583.365540 2315.356934,587.326843 
	C2323.382568,588.441223 2331.944580,587.557739 2339.996826,586.117249 
	C2348.870361,584.529724 2353.206055,577.768799 2354.022705,568.949341 
	C2354.297119,565.987610 2354.038086,562.976379 2353.793701,558.328552 
M2089.854492,559.194275 
	C2076.904785,556.397583 2064.032715,553.137573 2050.981689,550.942932 
	C2039.429443,549.000305 2027.810669,549.748169 2016.588867,553.730469 
	C2007.735107,556.872437 2000.872437,562.301941 1997.083496,571.054199 
	C1994.429321,577.185486 1995.433105,581.344604 2001.056274,584.757629 
	C2004.957520,587.125549 2009.398315,588.866089 2013.820679,590.065735 
	C2027.488281,593.773010 2041.482178,593.310974 2055.367432,591.917603 
	C2075.018555,589.945557 2093.906250,585.087036 2110.981934,574.671082 
	C2113.080322,573.390991 2114.830811,571.539734 2117.965820,568.937988 
	C2108.121582,565.513977 2099.749268,562.602051 2089.854492,559.194275 
M2281.764648,528.967407 
	C2281.362305,528.942688 2280.959961,528.917969 2280.557617,528.893311 
	C2280.748047,529.077393 2280.938721,529.261414 2281.764648,528.967407 
z"/>
<path fill="#4B82C3" opacity="1.000000" stroke="none" 
	d="
M831.529053,1040.047974 
	C830.460876,1038.806641 829.578979,1037.315186 828.297302,1036.360474 
	C794.813354,1011.416809 758.620728,992.019287 717.399536,983.350342 
	C669.509644,973.278870 626.051941,981.548645 589.025269,1015.345886 
	C588.288330,1016.018555 587.534546,1016.691711 586.704407,1017.236328 
	C586.180908,1017.579712 585.500671,1017.684082 584.660828,1017.975464 
	C581.840820,1013.553345 579.212891,1008.933167 576.111267,1004.656555 
	C563.975891,987.924500 547.213867,982.238770 527.716003,987.103210 
	C517.236755,989.717651 507.464783,995.267456 497.492615,999.756958 
	C494.211487,1001.234131 491.303986,1003.541260 487.608765,1005.855164 
	C485.819946,1002.748230 484.218079,999.981262 482.630524,997.206177 
	C468.286499,972.132812 448.005829,954.940674 418.632355,951.161438 
	C409.555206,949.993530 399.904449,950.498474 390.886566,952.199951 
	C367.709564,956.572937 346.013336,965.013977 327.868103,980.645691 
	C304.191101,1001.042847 297.736420,1027.071289 308.614319,1056.458984 
	C310.098419,1060.468384 311.820557,1064.389771 313.654266,1068.896973 
	C310.035980,1071.127686 306.988037,1073.072510 303.878357,1074.912720 
	C289.192047,1083.603882 275.103058,1093.198120 263.657654,1105.935303 
	C257.931610,1112.307495 252.721481,1119.486206 248.837143,1127.095825 
	C241.726608,1141.026001 242.936081,1155.170898 252.704407,1167.463501 
	C258.220154,1174.404541 264.807434,1180.953369 272.116364,1185.898926 
	C282.262390,1192.764160 293.508881,1198.014771 304.351685,1203.830811 
	C307.540009,1205.541016 310.957001,1206.825195 315.217041,1208.727905 
	C297.894897,1239.067505 283.685150,1269.702148 295.154938,1305.703613 
	C291.866486,1306.033081 289.587067,1306.459839 287.307861,1306.458740 
	C267.976715,1306.449341 248.636200,1306.725220 229.316208,1306.227539 
	C178.262924,1304.912842 136.107391,1262.524048 135.969406,1211.444336 
	C135.640823,1089.783813 135.621262,968.121033 135.978653,846.460693 
	C136.130890,794.639343 179.542603,751.824524 231.467407,751.770630 
	C399.459991,751.596313 567.453003,751.606995 735.445557,751.768799 
	C784.242859,751.815796 824.635925,788.554443 830.371033,837.369934 
	C831.068237,843.304260 831.456970,849.311340 831.461243,855.285095 
	C831.504761,916.281555 831.438843,977.278137 831.412415,1039.184204 
	C831.421265,1040.093750 831.529053,1040.047974 831.529053,1040.047974 
z"/>
<path fill="#4B83C3" opacity="1.000000" stroke="none" 
	d="
M831.191772,1040.858643 
	C831.529053,1040.047974 831.421265,1040.093750 831.372192,1040.129150 
	C832.575806,1040.364014 834.090698,1040.175781 835.042175,1040.819946 
	C852.826233,1052.859131 868.958313,1066.666382 880.620300,1084.992920 
	C896.768677,1110.369507 898.254639,1136.701294 885.272949,1163.833984 
	C879.612183,1175.665161 871.893921,1186.043335 862.831299,1195.468750 
	C861.704895,1196.640137 860.715393,1197.943115 859.487549,1199.391602 
	C860.310120,1200.677002 860.888550,1201.864746 861.719055,1202.837280 
	C882.230957,1226.854980 886.030396,1254.421509 876.309387,1283.379272 
	C858.910461,1335.208740 823.408569,1369.641113 771.183594,1385.776855 
	C732.080994,1397.858154 692.398376,1396.764282 652.848633,1387.195923 
	C620.698730,1379.417969 589.964233,1367.720825 560.248596,1353.267944 
	C557.878296,1352.114990 555.470337,1351.039307 552.739807,1349.769653 
	C550.300659,1351.588989 547.925720,1353.349609 545.562012,1355.125244 
	C522.106018,1372.745117 496.844238,1386.218262 467.268097,1390.399414 
	C441.104034,1394.098389 417.854095,1387.528198 396.887604,1371.829224 
	C384.730011,1362.725830 375.117798,1351.330078 366.492218,1338.151123 
	C358.466766,1338.151123 350.163055,1338.680542 341.949097,1338.046631 
	C321.651245,1336.480103 305.600616,1327.955811 296.792877,1308.574829 
	C296.662659,1308.288208 296.711365,1307.920166 296.547852,1306.370117 
	C300.302246,1306.130859 304.069458,1305.890747 308.939697,1305.666992 
	C310.241577,1304.943115 310.440369,1304.202637 310.639160,1303.462280 
	C303.851593,1283.408081 306.717773,1263.840088 315.099640,1245.187012 
	C320.801880,1232.497192 328.379059,1220.646362 335.195038,1208.463623 
	C336.474762,1206.176270 338.118866,1204.092896 340.092224,1201.181641 
	C336.955566,1199.881104 334.322296,1198.859619 331.746246,1197.709839 
	C318.086334,1191.612305 304.018066,1186.254517 290.940094,1179.090698 
	C282.340454,1174.380127 274.457764,1167.754761 267.544495,1160.718872 
	C258.088104,1151.094727 256.920319,1140.175659 264.191803,1128.763550 
	C269.116852,1121.034058 275.569061,1114.009399 282.371582,1107.801758 
	C295.521576,1095.801758 311.380646,1087.846191 327.305054,1080.157104 
	C330.252594,1078.733765 333.154022,1077.214844 336.436798,1075.558472 
	C332.895905,1069.981323 329.447723,1065.129272 326.589722,1059.951416 
	C311.775116,1033.111938 318.006226,1006.708618 343.118591,989.022827 
	C359.542480,977.456055 378.221558,972.008789 397.630402,968.006226 
	C428.017731,961.739563 449.311279,975.006165 465.271301,999.107666 
	C470.530731,1007.050110 473.677063,1016.396179 477.739105,1025.124023 
	C478.677460,1027.140259 479.408295,1029.253174 480.315155,1031.522949 
	C487.865051,1025.613403 494.579254,1019.560120 502.074738,1014.715454 
	C509.565277,1009.874023 517.497742,1005.307007 525.838440,1002.276001 
	C542.799866,996.112183 556.763306,1001.158691 566.025879,1016.797546 
	C570.366943,1024.126953 572.794312,1032.598755 575.986633,1040.593628 
	C576.836060,1042.720947 577.307312,1044.999268 579.969482,1048.792480 
	C581.303711,1046.687500 582.424377,1044.405396 584.003418,1042.503662 
	C618.594055,1000.847595 662.842468,986.544006 715.325439,997.114990 
	C750.915833,1004.283569 781.944458,1021.642822 811.244446,1042.394775 
	C816.406372,1046.050659 821.445557,1049.879883 827.389893,1054.285889 
	C828.829834,1054.628418 829.421265,1054.314209 830.012695,1054.000000 
	C830.293335,1049.889771 830.573853,1045.779419 831.191772,1040.858643 
M592.162659,1350.815063 
	C612.318909,1357.634399 632.187500,1365.524170 652.695496,1371.034424 
	C687.867188,1380.484497 723.610168,1382.551270 759.412415,1373.913208 
	C823.054932,1358.557983 859.973755,1305.270752 865.072815,1261.192871 
	C867.845154,1237.227417 861.549255,1216.988403 840.546631,1202.978882 
	C839.533203,1202.302979 838.717590,1201.330566 835.818909,1198.666138 
	C838.869690,1196.676025 841.925354,1195.510376 843.785217,1193.326294 
	C851.752441,1183.970337 860.341858,1174.932495 866.881470,1164.622192 
	C876.611816,1149.281494 880.855591,1132.216309 876.005981,1113.976440 
	C869.667114,1090.135498 854.251587,1073.276001 833.986755,1060.289062 
	C833.630188,1060.060547 832.782837,1060.597778 831.496582,1060.972168 
	C831.496582,1064.422852 831.496643,1068.059204 831.496643,1071.695435 
	C831.496277,1117.020020 831.615845,1162.344849 831.461487,1207.668945 
	C831.308594,1252.578247 803.393372,1289.994873 761.145508,1302.716309 
	C749.458130,1306.235474 737.536499,1306.473145 725.535950,1306.473145 
	C592.895020,1306.473389 460.254089,1306.470459 327.613159,1306.488281 
	C323.779114,1306.488892 319.945068,1306.706665 316.111023,1306.823120 
	C315.823303,1307.549561 315.535614,1308.276123 315.247894,1309.002686 
	C318.287537,1311.736816 320.994537,1315.014771 324.423615,1317.112305 
	C340.523102,1326.960449 357.732269,1322.984375 373.935577,1319.924927 
	C379.949005,1328.730957 384.810669,1337.144409 390.905518,1344.541626 
	C412.180756,1370.363281 439.133972,1381.188354 472.547516,1374.359619 
	C497.026794,1369.356934 517.847595,1357.279541 537.044434,1341.901123 
	C541.681091,1338.187134 546.182434,1334.304077 550.415466,1330.774292 
	C564.393677,1337.496948 577.588196,1343.842773 592.162659,1350.815063 
z"/>
<path fill="#B12B1D" opacity="1.000000" stroke="none" 
	d="
M2316.268066,1126.249878 
	C2335.789551,1105.011719 2352.151611,1082.431152 2364.535156,1057.081299 
	C2392.034912,1000.786194 2391.370850,944.823059 2362.569092,889.183411 
	C2345.661865,856.522339 2322.535156,828.624817 2295.643311,803.922852 
	C2277.049072,786.842773 2257.315186,771.003235 2237.648682,754.232422 
	C2239.461914,753.978638 2241.490723,753.447937 2243.520020,753.446594 
	C2309.165771,753.403259 2374.812988,753.145508 2440.456787,753.495972 
	C2491.971436,753.771057 2534.494629,795.846802 2535.906006,847.354431 
	C2536.298340,861.672668 2535.999756,876.010193 2536.000244,890.338867 
	C2536.003418,996.305054 2536.109863,1102.271362 2535.945557,1208.237305 
	C2535.884766,1247.555176 2518.587402,1277.296509 2484.346924,1296.761719 
	C2471.120361,1304.280762 2456.655518,1308.144165 2441.352539,1308.147583 
	C2303.396484,1308.178345 2165.440674,1308.165405 2027.484741,1308.152466 
	C2026.211304,1308.152344 2024.937744,1307.977905 2021.447021,1307.723145 
	C2025.396729,1305.781128 2027.516479,1304.574219 2029.756348,1303.661499 
	C2098.072021,1275.824219 2163.844482,1243.091187 2225.197021,1201.899780 
	C2257.923584,1179.927246 2288.729736,1155.598267 2316.268066,1126.249878 
z"/>
<path fill="#FDBB33" opacity="1.000000" stroke="none" 
	d="
M1442.000000,753.515381 
	C1473.540161,753.515137 1504.080200,753.515137 1534.565308,753.515137 
	C1536.307983,806.642029 1509.397217,893.160278 1416.169312,933.155945 
	C1411.311890,967.114075 1406.375488,1001.623169 1401.233643,1037.569580 
	C1393.372314,1037.623413 1385.535522,1037.698364 1377.698486,1037.724731 
	C1369.728882,1037.751709 1361.758911,1037.730713 1353.193604,1037.730713 
	C1352.745728,1035.135376 1352.050049,1032.968140 1352.045532,1030.799683 
	C1351.975586,996.492615 1352.113037,962.184448 1351.868652,927.878906 
	C1351.830566,922.538330 1353.909424,919.355774 1357.838013,916.226440 
	C1370.563354,906.089905 1383.045044,895.647766 1397.343628,883.908752 
	C1372.177368,876.727783 1348.728760,870.036926 1322.904297,862.668152 
	C1352.680908,849.214172 1381.471069,838.596558 1409.305908,824.225403 
	C1373.492920,815.407776 1337.679932,806.590149 1300.694336,797.483826 
	C1302.608276,794.979736 1303.421509,793.584595 1304.539307,792.504333 
	C1316.271240,781.164429 1328.220459,770.042664 1339.725586,758.478516 
	C1343.645874,754.538208 1347.782959,753.407959 1353.066895,753.437439 
	C1382.377075,753.601257 1411.688843,753.515808 1442.000000,753.515381 
z"/>
<path fill="#FDBB33" opacity="1.000000" stroke="none" 
	d="
M1320.397705,756.079346 
	C1303.500610,772.048218 1287.006714,787.401672 1268.739136,804.406311 
	C1301.392700,812.770874 1331.842407,820.570801 1364.756714,829.002075 
	C1334.848267,841.405334 1307.023804,852.944336 1276.861572,865.452820 
	C1306.678101,875.061829 1335.282593,881.163452 1364.324097,890.507080 
	C1356.091919,897.366638 1349.127075,903.503296 1341.790649,909.157776 
	C1337.406372,912.536926 1335.856567,916.400269 1335.893066,921.930969 
	C1336.122437,956.585205 1336.008423,991.241699 1336.007935,1025.897461 
	C1336.007935,1029.463745 1336.007935,1033.030029 1336.007935,1037.156982 
	C1317.734497,1037.156982 1300.590210,1037.156982 1282.712891,1037.156982 
	C1281.149780,1025.367920 1279.584839,1013.906250 1278.118530,1002.432068 
	C1275.419312,981.310486 1272.640381,960.197144 1270.223877,939.042786 
	C1269.715942,934.594788 1267.484741,932.955505 1263.761597,931.416138 
	C1246.738770,924.378296 1230.911377,915.244446 1216.641357,903.512878 
	C1185.501709,877.912231 1165.465698,845.010071 1154.423340,806.669128 
	C1150.304688,792.367920 1148.507202,777.390991 1145.820435,762.691345 
	C1145.360962,760.177673 1145.755493,757.507874 1145.755493,754.203125 
	C1149.174805,753.947815 1152.063965,753.546021 1154.953247,753.543945 
	C1207.603394,753.506104 1260.253540,753.488098 1312.903564,753.598938 
	C1315.537354,753.604492 1318.168457,754.814697 1320.397705,756.079346 
z"/>
<path fill="#5187C5" opacity="1.000000" stroke="none" 
	d="
M493.459259,1458.368652 
	C478.555450,1438.570679 483.482971,1413.747192 505.356689,1398.973877 
	C526.894531,1384.427124 557.825256,1385.507080 578.487366,1401.282104 
	C601.499512,1418.851562 601.716980,1449.308472 578.801086,1466.971680 
	C551.897949,1487.707886 512.095947,1482.040283 493.459259,1458.368652 
M522.726074,1460.887207 
	C538.847534,1466.526978 554.289490,1465.292236 568.327759,1455.297852 
	C583.913635,1444.201782 584.219055,1426.215820 569.473328,1413.963745 
	C553.389648,1400.599976 524.695801,1401.292847 509.466736,1415.412598 
	C497.654541,1426.364380 497.235168,1441.121338 508.902496,1452.138794 
	C512.439575,1455.478760 517.114868,1457.613403 522.726074,1460.887207 
z"/>
<path fill="#5287C5" opacity="1.000000" stroke="none" 
	d="
M459.177948,1505.224731 
	C441.868042,1518.459961 423.263062,1520.412842 403.733032,1514.143555 
	C389.138580,1509.458496 378.529480,1500.074707 376.228699,1484.185669 
	C373.858734,1467.818481 380.542603,1454.940552 393.828918,1445.392944 
	C411.858154,1432.437256 438.139099,1433.172974 455.418243,1447.059692 
	C474.477478,1462.376953 477.008606,1488.942139 459.177948,1505.224731 
M403.188934,1457.838989 
	C400.408020,1460.676392 397.113129,1463.170044 394.942291,1466.415527 
	C388.345734,1476.277954 390.961823,1488.784912 400.596832,1495.478760 
	C413.103882,1504.167847 434.649811,1503.957397 446.911499,1495.026367 
	C455.031982,1489.111816 457.589020,1480.772461 454.334625,1471.268066 
	C452.180176,1464.975952 448.129028,1460.285767 442.437744,1457.055542 
	C429.819580,1449.893677 417.118713,1449.950073 403.188934,1457.838989 
z"/>
<path fill="#FDBE3D" opacity="1.000000" stroke="none" 
	d="
M1328.078613,412.000000 
	C1328.078735,390.102539 1328.078735,369.205078 1328.078735,347.602844 
	C1333.588379,347.602844 1338.048584,347.602844 1343.149170,347.602844 
	C1343.149170,409.556671 1343.149170,470.958130 1343.149170,532.985596 
	C1338.271973,532.985596 1333.812378,532.985596 1328.078613,532.985596 
	C1328.078613,492.713226 1328.078613,452.856598 1328.078613,412.000000 
z"/>
<path fill="#FDBD39" opacity="1.000000" stroke="none" 
	d="
M1105.439697,544.513916 
	C1083.577515,525.117676 1062.244141,506.192596 1040.275513,486.703918 
	C1043.947021,482.470795 1046.897339,479.069305 1050.528809,474.882385 
	C1096.018677,515.288086 1140.918823,555.170044 1186.242676,595.428284 
	C1184.489380,597.713501 1183.147949,599.510315 1181.754028,601.265442 
	C1180.311401,603.081787 1178.817749,604.857605 1176.467773,607.722168 
	C1152.462524,586.359924 1129.215576,565.672424 1105.439697,544.513916 
z"/>
<path fill="#FDBD3A" opacity="1.000000" stroke="none" 
	d="
M1236.440308,503.416931 
	C1243.164795,519.005005 1249.588135,533.892578 1256.338989,549.539062 
	C1251.324463,551.592529 1247.175049,553.291748 1241.896729,555.453247 
	C1217.875488,499.867096 1194.190430,445.058990 1170.191406,389.524414 
	C1175.132202,387.381256 1179.276123,385.583710 1184.569946,383.287415 
	C1201.944946,423.526062 1219.042114,463.121216 1236.440308,503.416931 
z"/>
<path fill="#FDBD3A" opacity="1.000000" stroke="none" 
	d="
M1480.336060,438.433044 
	C1463.418335,477.602661 1446.791748,516.066895 1429.672607,555.670776 
	C1424.950684,553.628357 1420.611206,551.751343 1415.302002,549.454834 
	C1439.319702,493.870361 1463.010986,439.041260 1487.101440,383.288544 
	C1492.002686,385.468811 1496.102539,387.292542 1501.308838,389.608490 
	C1494.210571,406.123688 1487.418945,421.925690 1480.336060,438.433044 
z"/>
<path fill="#FDBD39" opacity="1.000000" stroke="none" 
	d="
M1501.361328,581.399109 
	C1540.923584,546.251465 1579.960083,511.575012 1619.015381,476.919952 
	C1619.485596,476.502777 1620.200073,476.360809 1621.725586,475.673523 
	C1624.522095,478.804657 1627.517212,482.158295 1631.460205,486.573181 
	C1586.128174,526.882263 1541.296753,566.746216 1496.031616,606.995728 
	C1493.841797,604.977539 1492.133057,603.560669 1490.616455,601.961548 
	C1489.037476,600.296936 1487.643921,598.456360 1485.311401,595.666626 
	C1490.598511,590.968872 1495.717651,586.420349 1501.361328,581.399109 
z"/>
<path fill="#FDBC38" opacity="1.000000" stroke="none" 
	d="
M1069.556152,648.227417 
	C1037.618896,632.270691 1006.360107,616.625488 973.961487,600.409790 
	C976.176086,596.030334 978.181030,592.065430 980.119507,588.232056 
	C987.755798,589.512878 1121.421875,655.656799 1131.179565,662.976379 
	C1129.360596,666.881104 1127.458008,670.965149 1125.115112,675.994507 
	C1106.420776,666.642151 1088.327637,657.590515 1069.556152,648.227417 
z"/>
<path fill="#5187C5" opacity="1.000000" stroke="none" 
	d="
M284.054321,1519.716797 
	C274.024292,1501.027344 281.044617,1484.024780 300.580261,1478.542236 
	C312.033966,1475.328003 323.630280,1475.306885 335.101196,1478.523560 
	C349.944733,1482.685791 357.164032,1492.614746 356.219849,1506.998291 
	C355.730957,1514.445801 352.273956,1520.049316 346.573792,1524.807861 
	C333.982727,1535.318848 294.987457,1535.683594 284.054321,1519.716797 
M325.761475,1492.292236 
	C318.840485,1492.685791 311.792542,1492.399902 305.033966,1493.662720 
	C298.191101,1494.941284 294.764252,1499.294800 294.703339,1504.145630 
	C294.638947,1509.275635 298.773499,1514.532104 305.570618,1515.371338 
	C313.402222,1516.338257 321.432343,1515.856934 329.369690,1515.691284 
	C331.238556,1515.652222 333.209259,1514.581299 334.913879,1513.603149 
	C342.718323,1509.124512 342.759369,1499.543945 334.935974,1495.268188 
	C332.641174,1494.013916 329.957214,1493.471802 325.761475,1492.292236 
z"/>
<path fill="#FDBC38" opacity="1.000000" stroke="none" 
	d="
M1592.722412,652.775757 
	C1577.214355,660.509094 1562.361694,667.886536 1546.720581,675.655579 
	C1544.221191,670.919861 1542.133789,666.964355 1539.564941,662.096863 
	C1590.259033,636.737122 1640.160522,611.773987 1690.804565,586.439331 
	C1693.055054,591.175598 1694.984619,595.236633 1697.437012,600.397888 
	C1662.275269,617.976196 1627.826538,635.198059 1592.722412,652.775757 
z"/>
<path fill="#5287C6" opacity="1.000000" stroke="none" 
	d="
M189.954163,1518.162354 
	C193.618210,1505.537109 202.340225,1500.179077 213.967163,1499.956055 
	C221.825317,1499.805298 230.045532,1500.269775 237.515701,1502.462646 
	C248.553665,1505.702759 254.130203,1514.389404 254.090652,1524.754761 
	C254.050537,1535.274780 248.418076,1542.821655 237.360107,1547.060669 
	C228.741669,1550.364624 219.758179,1550.847534 210.831787,1549.279663 
	C194.708572,1546.447388 187.892883,1536.290283 189.954163,1518.162354 
M227.877335,1534.129639 
	C229.457916,1533.688232 231.103867,1533.403198 232.606293,1532.774780 
	C236.417267,1531.181274 239.884064,1528.955566 239.569168,1524.237915 
	C239.265564,1519.689331 235.842209,1517.449097 231.895004,1516.157104 
	C224.863007,1513.855469 217.758636,1513.178711 210.520828,1515.443848 
	C205.731033,1516.942993 203.577332,1520.031860 203.754593,1525.016846 
	C203.934677,1530.080933 206.587112,1533.270752 211.365616,1533.894775 
	C216.227127,1534.529663 221.211411,1534.224365 227.877335,1534.129639 
z"/>
<path fill="#5287C6" opacity="1.000000" stroke="none" 
	d="
M187.592056,1603.834717 
	C176.251511,1610.368286 164.972656,1611.065308 153.336227,1607.633057 
	C143.078003,1604.607300 136.309982,1597.021362 135.851288,1588.336060 
	C135.339050,1578.637085 140.807739,1570.430176 151.110596,1566.204346 
	C161.724762,1561.850830 172.380554,1562.036133 182.948090,1566.718628 
	C196.313461,1572.640747 204.674698,1591.039551 187.592056,1603.834717 
M180.684677,1592.071411 
	C184.493698,1586.107544 184.350876,1584.299072 179.786545,1580.706299 
	C173.542389,1575.791016 161.574417,1575.165039 154.505020,1579.940552 
	C152.288284,1581.437866 149.482117,1584.640259 149.779449,1586.641113 
	C150.167404,1589.251831 152.908340,1592.430298 155.454529,1593.632324 
	C163.352234,1597.360718 171.503677,1596.673950 180.684677,1592.071411 
z"/>
<path fill="#F8FAFD" opacity="1.000000" stroke="none" 
	d="
M829.462463,1054.007446 
	C829.421265,1054.314209 828.829834,1054.628418 828.025879,1054.509399 
	C828.179565,1054.055908 828.545898,1054.035522 829.462463,1054.007446 
z"/>
<path fill="#FFF8EA" opacity="1.000000" stroke="none" 
	d="
M1326.000000,1125.459473 
	C1307.798584,1125.459106 1290.597046,1125.459106 1272.879883,1125.459106 
	C1272.879883,1120.044800 1272.879883,1115.865845 1272.879883,1111.750854 
	C1280.127686,1109.830811 1401.573975,1109.283325 1414.928467,1111.148926 
	C1414.928467,1115.441040 1414.928467,1119.847900 1414.928467,1125.459961 
	C1385.354980,1125.459961 1356.177490,1125.459961 1326.000000,1125.459473 
z"/>
<path fill="#FFFAF0" opacity="1.000000" stroke="none" 
	d="
M1280.506226,1143.933594 
	C1325.622070,1143.932495 1369.800781,1143.932495 1414.800293,1143.932495 
	C1414.800293,1149.032349 1414.800293,1153.494263 1414.800293,1158.025879 
	C1408.160645,1159.993408 1289.682861,1160.746216 1273.192261,1158.771118 
	C1273.192261,1154.458496 1273.192261,1150.019653 1273.192261,1144.904785 
	C1275.194336,1144.600220 1277.381714,1144.267456 1280.506226,1143.933594 
z"/>
<path fill="#FFFDFB" opacity="1.000000" stroke="none" 
	d="
M1399.825806,1090.155518 
	C1357.012573,1090.155518 1315.171387,1090.155518 1272.735352,1090.155518 
	C1272.735352,1085.291870 1272.735352,1081.435669 1272.735352,1077.522339 
	C1279.528442,1075.428101 1394.972534,1074.554443 1414.543457,1076.562622 
	C1414.543457,1080.592407 1414.543457,1084.701294 1414.543457,1090.155396 
	C1409.868042,1090.155396 1405.332886,1090.155396 1399.825806,1090.155518 
z"/>
<path fill="#FFFAF0" opacity="1.000000" stroke="none" 
	d="
M1367.132446,1184.011719 
	C1366.839844,1187.406860 1366.538086,1189.953369 1366.197754,1192.824707 
	C1350.025269,1192.824707 1334.526489,1192.824707 1318.479736,1192.824707 
	C1318.479736,1188.024902 1318.479736,1183.802979 1318.479736,1179.002808 
	C1320.165039,1178.627563 1322.005615,1177.877686 1323.852661,1177.861450 
	C1336.183105,1177.752441 1348.516113,1177.887329 1360.845947,1177.746094 
	C1364.786865,1177.700928 1367.426025,1178.572998 1367.132446,1184.011719 
z"/>
<path fill="#FFFEFE" opacity="1.000000" stroke="none" 
	d="
M2074.686523,503.332703 
	C2023.702881,455.538452 1991.677124,398.029999 1978.950439,329.970428 
	C1971.966431,292.621124 1970.390137,255.099838 1978.974609,217.824966 
	C1993.662354,154.048889 2031.448853,108.792374 2092.529053,85.713638 
	C2172.751953,55.401978 2249.902832,63.857948 2320.675781,113.133369 
	C2364.562012,143.688812 2388.400635,187.176697 2394.460449,240.505753 
	C2398.725098,278.037903 2392.316895,314.261078 2381.853027,349.915558 
	C2359.754639,425.214294 2317.213867,485.929565 2251.458252,529.643677 
	C2236.720703,539.441223 2221.186035,547.767578 2204.474854,553.794678 
	C2200.804688,555.118469 2197.323486,556.967163 2191.426758,559.622742 
	C2206.626465,562.725830 2209.817383,574.153992 2214.783447,584.137024 
	C2221.457275,597.553345 2228.216064,610.927490 2234.886230,624.345764 
	C2236.318604,627.227295 2237.527832,630.219788 2239.230713,634.036987 
	C2199.536621,634.036987 2161.098389,634.036987 2121.452148,634.036987 
	C2132.052490,609.142517 2142.299072,585.078918 2152.918701,560.139526 
	C2124.849609,543.825745 2098.649414,525.673523 2074.686523,503.332703 
z"/>
<path fill="#FDFBFA" opacity="1.000000" stroke="none" 
	d="
M2353.908203,559.158203 
	C2354.038086,562.976379 2354.297119,565.987610 2354.022705,568.949341 
	C2353.206055,577.768799 2348.870361,584.529724 2339.996826,586.117249 
	C2331.944580,587.557739 2323.382568,588.441223 2315.356934,587.326843 
	C2286.829346,583.365540 2260.355469,572.636719 2232.814941,560.648071 
	C2235.904785,559.126831 2237.751709,557.935303 2239.771240,557.266479 
	C2263.154053,549.522217 2286.806396,542.759705 2311.525391,541.191833 
	C2319.404053,540.692139 2327.509766,541.159058 2335.293945,542.472839 
	C2344.219727,543.979309 2351.487549,548.549072 2353.908203,559.158203 
z"/>
<path fill="#FDFBFA" opacity="1.000000" stroke="none" 
	d="
M2090.615723,559.442139 
	C2099.749268,562.602051 2108.121582,565.513977 2117.965820,568.937988 
	C2114.830811,571.539734 2113.080322,573.390991 2110.981934,574.671082 
	C2093.906250,585.087036 2075.018555,589.945557 2055.367432,591.917603 
	C2041.482178,593.310974 2027.488281,593.773010 2013.820679,590.065735 
	C2009.398315,588.866089 2004.957520,587.125549 2001.056274,584.757629 
	C1995.433105,581.344604 1994.429321,577.185486 1997.083496,571.054199 
	C2000.872437,562.301941 2007.735107,556.872437 2016.588867,553.730469 
	C2027.810669,549.748169 2039.429443,549.000305 2050.981689,550.942932 
	C2064.032715,553.137573 2076.904785,556.397583 2090.615723,559.442139 
z"/>
<path fill="#FFFFFF" opacity="1.000000" stroke="none" 
	d="
M2281.447021,529.206421 
	C2280.938721,529.261414 2280.748047,529.077393 2280.557617,528.893311 
	C2280.959961,528.917969 2281.362305,528.942688 2281.447021,529.206421 
z"/>
<path fill="#FFFFFF" opacity="1.000000" stroke="none" 
	d="
M2229.988281,578.010254 
	C2229.705322,577.613342 2229.364502,577.255737 2229.023438,576.898071 
	C2229.474854,577.085815 2229.926514,577.273621 2230.092773,577.789185 
	C2229.807617,578.116943 2229.930420,578.049438 2229.988281,578.010254 
z"/>
<path fill="#FFFFFF" opacity="1.000000" stroke="none" 
	d="
M2097.951172,544.045898 
	C2098.660889,544.300415 2099.175293,544.741089 2099.689453,545.181824 
	C2099.148438,545.282104 2098.607422,545.382385 2097.713867,545.041870 
	C2097.361572,544.601135 2097.755859,544.232117 2097.951172,544.045898 
z"/>
<path fill="#FCFDFE" opacity="1.000000" stroke="none" 
	d="
M591.472656,1350.501709 
	C577.588196,1343.842773 564.393677,1337.496948 550.415466,1330.774292 
	C546.182434,1334.304077 541.681091,1338.187134 537.044434,1341.901123 
	C517.847595,1357.279541 497.026794,1369.356934 472.547516,1374.359619 
	C439.133972,1381.188354 412.180756,1370.363281 390.905518,1344.541626 
	C384.810669,1337.144409 379.949005,1328.730957 373.935577,1319.924927 
	C357.732269,1322.984375 340.523102,1326.960449 324.423615,1317.112305 
	C320.994537,1315.014771 318.287537,1311.736816 315.247894,1309.002686 
	C315.535614,1308.276123 315.823303,1307.549561 316.111023,1306.823120 
	C319.945068,1306.706665 323.779114,1306.488892 327.613159,1306.488281 
	C460.254089,1306.470459 592.895020,1306.473389 725.535950,1306.473145 
	C737.536499,1306.473145 749.458130,1306.235474 761.145508,1302.716309 
	C803.393372,1289.994873 831.308594,1252.578247 831.461487,1207.668945 
	C831.615845,1162.344849 831.496277,1117.020020 831.496643,1071.695435 
	C831.496643,1068.059204 831.496582,1064.422852 831.496582,1060.972168 
	C832.782837,1060.597778 833.630188,1060.060547 833.986755,1060.289062 
	C854.251587,1073.276001 869.667114,1090.135498 876.005981,1113.976440 
	C880.855591,1132.216309 876.611816,1149.281494 866.881470,1164.622192 
	C860.341858,1174.932495 851.752441,1183.970337 843.785217,1193.326294 
	C841.925354,1195.510376 838.869690,1196.676025 835.818909,1198.666138 
	C838.717590,1201.330566 839.533203,1202.302979 840.546631,1202.978882 
	C861.549255,1216.988403 867.845154,1237.227417 865.072815,1261.192871 
	C859.973755,1305.270752 823.054932,1358.557983 759.412415,1373.913208 
	C723.610168,1382.551270 687.867188,1380.484497 652.695496,1371.034424 
	C632.187500,1365.524170 612.318909,1357.634399 591.472656,1350.501709 
z"/>
<path fill="#F8FAFD" opacity="1.000000" stroke="none" 
	d="
M310.240082,1303.886230 
	C310.440369,1304.202637 310.241577,1304.943115 309.641235,1305.495605 
	C309.440155,1304.975220 309.640594,1304.642700 310.240082,1303.886230 
z"/>
<path fill="#FCFDFE" opacity="1.000000" stroke="none" 
	d="
M521.997437,1460.593628 
	C517.114868,1457.613403 512.439575,1455.478760 508.902496,1452.138794 
	C497.235168,1441.121338 497.654541,1426.364380 509.466736,1415.412598 
	C524.695801,1401.292847 553.389648,1400.599976 569.473328,1413.963745 
	C584.219055,1426.215820 583.913635,1444.201782 568.327759,1455.297852 
	C554.289490,1465.292236 538.847534,1466.526978 521.997437,1460.593628 
z"/>
<path fill="#FBFCFE" opacity="1.000000" stroke="none" 
	d="
M403.811249,1457.401367 
	C417.118713,1449.950073 429.819580,1449.893677 442.437744,1457.055542 
	C448.129028,1460.285767 452.180176,1464.975952 454.334625,1471.268066 
	C457.589020,1480.772461 455.031982,1489.111816 446.911499,1495.026367 
	C434.649811,1503.957397 413.103882,1504.167847 400.596832,1495.478760 
	C390.961823,1488.784912 388.345734,1476.277954 394.942291,1466.415527 
	C397.113129,1463.170044 400.408020,1460.676392 403.811249,1457.401367 
z"/>
<path fill="#FAFBFD" opacity="1.000000" stroke="none" 
	d="
M326.606537,1492.447754 
	C329.957214,1493.471802 332.641174,1494.013916 334.935974,1495.268188 
	C342.759369,1499.543945 342.718323,1509.124512 334.913879,1513.603149 
	C333.209259,1514.581299 331.238556,1515.652222 329.369690,1515.691284 
	C321.432343,1515.856934 313.402222,1516.338257 305.570618,1515.371338 
	C298.773499,1514.532104 294.638947,1509.275635 294.703339,1504.145630 
	C294.764252,1499.294800 298.191101,1494.941284 305.033966,1493.662720 
	C311.792542,1492.399902 318.840485,1492.685791 326.606537,1492.447754 
z"/>
<path fill="#F7F9FC" opacity="1.000000" stroke="none" 
	d="
M227.009644,1534.230225 
	C221.211411,1534.224365 216.227127,1534.529663 211.365616,1533.894775 
	C206.587112,1533.270752 203.934677,1530.080933 203.754593,1525.016846 
	C203.577332,1520.031860 205.731033,1516.942993 210.520828,1515.443848 
	C217.758636,1513.178711 224.863007,1513.855469 231.895004,1516.157104 
	C235.842209,1517.449097 239.265564,1519.689331 239.569168,1524.237915 
	C239.884064,1528.955566 236.417267,1531.181274 232.606293,1532.774780 
	C231.103867,1533.403198 229.457916,1533.688232 227.009644,1534.230225 
z"/>
<path fill="#F4F7FB" opacity="1.000000" stroke="none" 
	d="
M180.032288,1592.499023 
	C171.503677,1596.673950 163.352234,1597.360718 155.454529,1593.632324 
	C152.908340,1592.430298 150.167404,1589.251831 149.779449,1586.641113 
	C149.482117,1584.640259 152.288284,1581.437866 154.505020,1579.940552 
	C161.574417,1575.165039 173.542389,1575.791016 179.786545,1580.706299 
	C184.350876,1584.299072 184.493698,1586.107544 180.032288,1592.499023 
z"/>
</svg>